<?xml version="1.0" encoding="UTF-8"?>
<svg version="1.1" xmlns="http://www.w3.org/2000/svg" width="1307" height="393">
<path d="M0 0 C0.40347656 0.99902344 0.80695313 1.99804688 1.22265625 3.02734375 C6.75871275 15.89956386 15.65267699 26.73190478 25 37 C26.01478202 38.13630891 27.02910675 39.27302638 28.04296875 40.41015625 C43.38090024 57.47543274 62.7943625 74.74046466 85 82 C83.65618594 85.12666302 82.35427188 86.78187191 79.578125 88.734375 C78.54570679 89.46575684 78.54570679 89.46575684 77.49243164 90.21191406 C76.38242798 90.9732666 76.38242798 90.9732666 75.25 91.75 C74.48357178 92.28077148 73.71714355 92.81154297 72.92749023 93.35839844 C34.90690086 119.37601515 -12.29169591 130.98720732 -58 123 C-85.68592273 117.6447133 -109.59514017 107.62930735 -133 92 C-134.02867187 91.32195312 -135.05734375 90.64390625 -136.1171875 89.9453125 C-144.48550248 84.15950422 -151.69586463 77.04226019 -159 70 C-159.79792969 69.24332031 -160.59585938 68.48664063 -161.41796875 67.70703125 C-175.49339677 54.0811179 -185.8533762 37.69095266 -194 20 C-194.4228125 19.08476562 -194.845625 18.16953125 -195.28125 17.2265625 C-196 15 -196 15 -195 12 C-194.45287354 12.27150879 -193.90574707 12.54301758 -193.34204102 12.82275391 C-156.63822321 30.93513179 -119.21384729 38.49056763 -78.1875 32.4375 C-75.40152254 32.05511094 -72.80523129 31.91499299 -70 32 C-69.505 30.515 -69.505 30.515 -69 29 C-69 29.66 -69 30.32 -69 31 C-51.88194886 26.69981324 -35.84318677 20.88789241 -20.3125 12.4375 C-19.11101318 11.78563721 -19.11101318 11.78563721 -17.88525391 11.12060547 C-12.81945625 8.27354454 -8.3195547 5.0382074 -3.83666992 1.34008789 C-2 0 -2 0 0 0 Z " fill="#000000" transform="translate(403,250)"/>
<path d="M0 0 C1.48899885 39.48604367 -13.3428213 79.26961246 -39.87182617 108.56347656 C-70.07016828 141.09273701 -107.72258445 162.55921091 -152.73242188 165.22070312 C-156.49099667 165.33760134 -160.23964255 165.37884274 -164 165.375 C-164.65944611 165.3764502 -165.31889221 165.37790039 -165.99832153 165.37939453 C-178.60166312 165.37636192 -190.70796244 163.78715883 -203 161 C-203 160.01 -203 159.02 -203 158 C-202.33097656 157.70609375 -201.66195312 157.4121875 -200.97265625 157.109375 C-187.13406743 150.64517512 -175.07396981 141.4459564 -164 131 C-162.77685569 129.97195847 -161.54815717 128.9504673 -160.3125 127.9375 C-156.4503141 124.63218741 -153.21484793 120.92925858 -150 117 C-149.24847656 116.08605469 -148.49695313 115.17210937 -147.72265625 114.23046875 C-124.07818695 84.53480826 -112.60443471 51.59490922 -110 14 C-106.32882364 12.77627455 -103.4845134 13.33933466 -99.75 13.875 C-88.87425963 15.31189697 -77.95525033 15.64271622 -67 16 C-66.67 15.34 -66.34 14.68 -66 14 C-65.30519531 14.04640625 -64.61039063 14.0928125 -63.89453125 14.140625 C-43.84767727 14.85204694 -23.04192752 8.67198959 -4.8125 0.6640625 C-3 0 -3 0 0 0 Z " fill="#000000" transform="translate(412,83)"/>
<path d="M0 0 C6.93120033 4.26921759 13.35342035 9.10586676 19 15 C19 15.66 19 16.32 19 17 C19.66 17 20.32 17 21 17 C22.78024171 19.00239154 24.43015028 21.0061995 26.0625 23.125 C26.79786987 24.07463623 26.79786987 24.07463623 27.5480957 25.04345703 C42.79236322 44.99860092 53.70072338 67.41887651 59 92 C59.17370117 92.77214844 59.34740234 93.54429688 59.52636719 94.33984375 C67.10783899 129.58194945 58.27950261 167.18697871 38.9609375 197.1640625 C34.45576786 203.53591597 29.35684671 209.33484556 24 215 C23.34515625 215.69609375 22.6903125 216.3921875 22.015625 217.109375 C19.12013292 220.10385826 16.76918123 222.1863752 13 224 C13.02094727 223.22213135 13.04189453 222.4442627 13.06347656 221.64282227 C14.02285786 180.27709406 5.90179468 136.97409266 -22.9453125 105.40625 C-25 103 -25 103 -25 101 C-25.66 101 -26.32 101 -27 101 C-28.11626229 99.91862091 -29.22467582 98.82837835 -30.30078125 97.70703125 C-32.52496617 95.4726202 -34.84975227 93.36510509 -37.1875 91.25 C-38.04730469 90.47140625 -38.90710938 89.6928125 -39.79296875 88.890625 C-41.84981229 86.97415522 -41.84981229 86.97415522 -44 86 C-44 83 -44 83 -42.65991211 81.64282227 C-41.75897827 80.95530884 -41.75897827 80.95530884 -40.83984375 80.25390625 C-37.08493723 77.18823327 -34.35047924 73.88055087 -31.5625 69.9375 C-31.09223389 69.28193115 -30.62196777 68.6263623 -30.13745117 67.95092773 C-16.43480428 48.64127436 -4.50616629 26.55722977 -1.2890625 2.765625 C-1 1 -1 1 0 0 Z " fill="#000000" transform="translate(185,7)"/>
<path d="M0 0 C1.88082164 1.68610904 3.69547417 3.41403951 5.51171875 5.171875 C7.67513497 7.34460251 7.67513497 7.34460251 10.6484375 9.203125 C10.6484375 9.863125 10.6484375 10.523125 10.6484375 11.203125 C11.3084375 11.203125 11.9684375 11.203125 12.6484375 11.203125 C14.30221452 13.10481741 15.82746137 15.00291974 17.3359375 17.015625 C17.78364502 17.60802979 18.23135254 18.20043457 18.69262695 18.81079102 C33.18909766 38.20264634 44.60267541 61.39293928 43.6484375 86.203125 C43.3184375 85.543125 42.9884375 84.883125 42.6484375 84.203125 C41.74738281 83.75646484 41.74738281 83.75646484 40.828125 83.30078125 C38.35056022 82.0531187 36.76950003 80.56290311 34.7734375 78.640625 C20.73250525 65.99463878 2.94738761 57.52133519 -15.3515625 53.203125 C-16.03250977 53.03304932 -16.71345703 52.86297363 -17.41503906 52.68774414 C-35.87553059 48.26231149 -57.8271335 48.84548335 -75.390625 56.43359375 C-77.3515625 57.203125 -77.3515625 57.203125 -80.3515625 57.203125 C-80.49851563 56.25695312 -80.64546875 55.31078125 -80.796875 54.3359375 C-84.23992091 33.49883718 -91.28475164 13.37694955 -105.50390625 -2.59765625 C-107.1930496 -4.60820108 -108.30530651 -6.40308512 -109.3515625 -8.796875 C-110.0115625 -8.796875 -110.6715625 -8.796875 -111.3515625 -8.796875 C-112.7890625 -10.109375 -112.7890625 -10.109375 -114.3515625 -11.796875 C-114.9084375 -12.291875 -115.4653125 -12.786875 -116.0390625 -13.296875 C-117.3515625 -14.796875 -117.3515625 -14.796875 -117.3515625 -17.796875 C-77.78982078 -29.43006953 -32.80940125 -28.29145002 0 0 Z " fill="#000000" transform="translate(137.3515625,148.796875)"/>
<path d="M0 0 C0 0.33 0 0.66 0 1 C-1.12535156 1.21914063 -2.25070313 1.43828125 -3.41015625 1.6640625 C-18.34686783 4.69657335 -31.41284953 9.08495177 -44 18 C-44.68191406 18.47050781 -45.36382812 18.94101562 -46.06640625 19.42578125 C-63.5233839 31.94543188 -76.62164098 48.36600856 -83 69 C-83.65613281 68.731875 -84.31226562 68.46375 -84.98828125 68.1875 C-88.69862785 66.72453584 -92.43481572 65.35003068 -96.1875 64 C-97.24420898 63.60941406 -97.24420898 63.60941406 -98.32226562 63.2109375 C-107.14014942 60.05086331 -115.85048136 58.69032885 -125.1875 58.3125 C-126.09008545 58.2719751 -126.9926709 58.2314502 -127.92260742 58.18969727 C-135.67981398 57.89776308 -143.27753713 58.22893996 -151 59 C-146.61181931 43.65239317 -139.79532946 29.90051858 -129 18 C-128.20207031 17.10925781 -127.40414062 16.21851563 -126.58203125 15.30078125 C-92.55730356 -20.73427008 -41.61889619 -23.64241751 0 0 Z " fill="#000000" transform="translate(170,257)"/>
<path d="M0 0 C0.83265381 0.00523682 1.66530762 0.01047363 2.52319336 0.01586914 C3.42231445 0.0190918 4.32143555 0.02231445 5.24780273 0.02563477 C6.66609375 0.03820312 6.66609375 0.03820312 8.11303711 0.05102539 C9.06243164 0.05553711 10.01182617 0.06004883 10.98999023 0.06469727 C13.34356776 0.07652429 15.69702188 0.09300514 18.05053711 0.11352539 C20.0796286 4.14658629 22.10584087 8.18107801 24.12963867 12.21679688 C24.81541335 13.58338381 25.50191148 14.94960799 26.18920898 16.31542969 C30.64690675 25.17542985 34.9597458 34.07656042 39.05053711 43.11352539 C39.03482666 41.52483643 39.03482666 41.52483643 39.01879883 39.90405273 C38.98246923 35.95682179 38.95958963 32.0096055 38.94067383 28.06225586 C38.93064571 26.35715241 38.91701985 24.65206603 38.8996582 22.94702148 C38.87526908 20.48945897 38.86402199 18.03212479 38.85522461 15.57446289 C38.84490204 14.81797455 38.83457947 14.06148621 38.82394409 13.28207397 C38.82301213 8.8382717 39.3461144 5.22521736 41.05053711 1.11352539 C42.05053711 0.11352539 42.05053711 0.11352539 45.21069336 0.01586914 C47.14235352 0.03327148 47.14235352 0.03327148 49.11303711 0.05102539 C50.40338867 0.06004883 51.69374023 0.06907227 53.02319336 0.07836914 C54.0222168 0.0899707 55.02124023 0.10157227 56.05053711 0.11352539 C58.36913205 3.77135493 58.26143396 6.81894301 58.18579102 11.08520508 C58.1763295 11.77829269 58.16686798 12.47138031 58.15711975 13.18547058 C58.12352766 15.4690539 58.07539004 17.75208456 58.02709961 20.03540039 C58.0009236 21.62150644 57.9756573 23.20762775 57.95126343 24.79376221 C57.88469937 28.96306703 57.80578796 33.13205006 57.7243042 37.30108643 C57.64329914 41.55745111 57.57397197 45.81400423 57.50366211 50.07055664 C57.36404976 58.41844164 57.21139278 66.76602284 57.05053711 75.11352539 C53.82259914 75.34681625 50.59682479 75.48820213 47.36303711 75.61352539 C46.45102539 75.68055664 45.53901367 75.74758789 44.59936523 75.81665039 C41.87421157 75.89592759 39.67750036 75.85654947 37.05053711 75.11352539 C34.66421313 72.74619615 33.38038906 70.17229529 32.05053711 67.11352539 C31.41082944 65.81229276 30.77034228 64.5114427 30.12866211 63.21118164 C29.51399083 61.86854162 28.90460797 60.52346793 28.30053711 59.17602539 C24.30629119 50.27067256 19.65285574 41.71477225 15.05053711 33.11352539 C15.05839233 34.96868774 15.05839233 34.96868774 15.06640625 36.86132812 C15.08445272 41.43277264 15.09596782 46.00421398 15.10546875 50.57568359 C15.11050978 52.55745981 15.11734249 54.53923228 15.12597656 56.52099609 C15.13805226 59.36304648 15.14376756 62.20504786 15.14819336 65.04711914 C15.15335464 65.93878281 15.15851593 66.83044647 15.16383362 67.74913025 C15.16402887 69.8709314 15.11263741 71.99263319 15.05053711 74.11352539 C14.05053711 75.11352539 14.05053711 75.11352539 10.45288086 75.21118164 C8.96456844 75.20450759 7.47627279 75.19254722 5.98803711 75.17602539 C5.22942383 75.17151367 4.47081055 75.16700195 3.68920898 75.16235352 C1.8096184 75.15053219 -0.06993188 75.13259617 -1.94946289 75.11352539 C-4.03813809 70.93617499 -3.83084948 68.62927152 -2.94946289 64.11352539 C-2.79463401 61.15473126 -2.80962695 58.20076767 -2.82446289 55.23852539 C-2.81866211 54.0919043 -2.81866211 54.0919043 -2.81274414 52.92211914 C-2.81907472 49.19340911 -2.97397256 45.60896322 -3.51977539 41.91821289 C-3.94946289 38.11352539 -3.94946289 38.11352539 -3.48022461 35.33398438 C-2.89046351 31.75553974 -2.85360266 28.40733391 -2.88696289 24.78149414 C-2.89074951 24.10427811 -2.89453613 23.42706207 -2.8984375 22.72932434 C-2.91056444 20.5864904 -2.92921395 18.44379699 -2.94946289 16.30102539 C-2.97597101 13.46118575 -2.99597067 10.62141016 -3.01196289 7.78149414 C-3.02356445 6.52618896 -3.03516602 5.27088379 -3.04711914 3.97753906 C-2.91728696 0.16988584 -2.91728696 0.16988584 0 0 Z " fill="#010101" transform="translate(1142.949462890625,168.886474609375)"/>
<path d="M0 0 C0.7120459 0.00008057 1.4240918 0.00016113 2.15771484 0.00024414 C4.29545797 -0.00191617 6.43266263 -0.01998961 8.5703125 -0.0390625 C18.63119324 -0.0813701 27.83927485 0.19066001 36.33203125 6.18554688 C40.66678739 10.97659314 41.56561493 15.88852024 41.33203125 22.18554688 C40.20248733 28.43062145 37.41113455 31.57374008 32.33203125 35.18554688 C32.87472656 35.56066406 33.41742187 35.93578125 33.9765625 36.32226562 C38.71223116 39.70976195 41.90948743 42.43520407 44.01953125 47.99804688 C45.03869728 55.13220911 44.53297687 60.24034898 40.33203125 66.18554688 C35.06183097 71.83040594 29.93981775 74.12918829 22.33203125 75.18554688 C19.72035208 75.26545415 17.13760195 75.30270368 14.52734375 75.28320312 C13.80336395 75.28178818 13.07938416 75.28037323 12.33346558 75.27891541 C10.04127718 75.27335763 7.74918968 75.26081321 5.45703125 75.24804688 C3.89453267 75.24302641 2.33203254 75.23846446 0.76953125 75.234375 C-3.0430071 75.22340207 -6.85547087 75.20616698 -10.66796875 75.18554688 C-10.82155498 65.55450003 -10.96973669 55.92338989 -11.11093235 46.29215336 C-11.17665997 41.82045487 -11.24428086 37.34880141 -11.31616211 32.87719727 C-11.3854045 28.56548667 -11.44976055 24.25372879 -11.51066399 19.94189262 C-11.53482332 18.29315967 -11.56077241 16.64445198 -11.58850288 14.99577522 C-11.62690922 12.69457073 -11.65907015 10.39336029 -11.68969727 8.09204102 C-11.70968277 6.77965958 -11.72966827 5.46727814 -11.7502594 4.11512756 C-11.57228668 -2.22077388 -4.99831629 0.01792309 0 0 Z M7.33203125 14.18554688 C7.33203125 19.46554688 7.33203125 24.74554688 7.33203125 30.18554688 C8.89953125 30.22679687 10.46703125 30.26804688 12.08203125 30.31054688 C12.96375 30.33375 13.84546875 30.35695312 14.75390625 30.38085938 C17.48109551 30.17425413 19.04518533 29.65860528 21.33203125 28.18554688 C22.86049786 25.12861365 22.5644557 22.5557014 22.33203125 19.18554688 C20.57187994 16.00051118 19.83312209 15.35257715 16.33203125 14.18554688 C14.77084697 14.11813823 13.20700605 14.10040231 11.64453125 14.12304688 C10.22140625 14.14367187 8.79828125 14.16429687 7.33203125 14.18554688 Z M7.33203125 43.18554688 C7.33203125 49.12554687 7.33203125 55.06554687 7.33203125 61.18554688 C16.03939115 61.30965626 16.03939115 61.30965626 23.33203125 58.18554688 C24.49546352 55.85868234 24.53099113 54.33833274 24.58203125 51.74804688 C24.6078125 50.96558594 24.63359375 50.183125 24.66015625 49.37695312 C24.25165853 46.6487719 23.49930664 45.84138578 21.33203125 44.18554688 C18.18272232 43.13577723 15.94388669 43.08423093 12.64453125 43.12304688 C10.89140625 43.14367187 9.13828125 43.16429687 7.33203125 43.18554688 Z " fill="#010101" transform="translate(1000.66796875,168.814453125)"/>
<path d="M0 0 C0.68835938 0.00008057 1.37671875 0.00016113 2.0859375 0.00024414 C4.15125994 -0.00191523 6.21602416 -0.01998592 8.28125 -0.0390625 C15.37700738 -0.06907002 21.83050203 0.28480999 28.6875 2.18554688 C29.76 2.43304688 30.8325 2.68054688 31.9375 2.93554688 C36.97374108 5.22474737 39.44612764 9.18031666 41.5 14.12304688 C43.75734531 20.98589556 42.74339043 26.34412917 39.9765625 32.87304688 C38.07863276 36.2778178 35.887281 38.00387801 32.6875 40.18554688 C33.67661697 42.19075673 34.68164687 44.17498579 35.765625 46.13085938 C38.79835655 51.77174005 40.97530785 57.56465635 43 63.62304688 C43.26651367 64.41662598 43.53302734 65.21020508 43.80761719 66.02783203 C45.6875 71.79222959 45.6875 71.79222959 45.6875 75.18554688 C42.93585568 75.32072591 40.19085479 75.41969938 37.4375 75.49804688 C36.66019531 75.53994141 35.88289062 75.58183594 35.08203125 75.625 C31.2788387 75.7062648 29.36403005 75.74288958 26.359375 73.26757812 C23.70829914 68.38043126 22.06442164 63.22734967 20.33203125 57.95898438 C19.90470703 56.72148437 19.90470703 56.72148437 19.46875 55.45898438 C19.22189453 54.71052246 18.97503906 53.96206055 18.72070312 53.19091797 C17.43267362 50.69094766 16.07472425 49.64161993 13.6875 48.18554688 C10.53631675 47.46509321 10.53631675 47.46509321 7.6875 47.18554688 C7.74079468 48.23681763 7.74079468 48.23681763 7.79516602 49.30932617 C7.95316261 52.49695364 8.10167409 55.68495539 8.25 58.87304688 C8.30607422 59.97583984 8.36214844 61.07863281 8.41992188 62.21484375 C8.46826172 63.28154297 8.51660156 64.34824219 8.56640625 65.44726562 C8.63710327 66.91619263 8.63710327 66.91619263 8.70922852 68.41479492 C8.6875 71.18554688 8.6875 71.18554688 7.6875 76.18554688 C1.0875 75.85554688 -5.5125 75.52554688 -12.3125 75.18554688 C-12.20459614 65.55434627 -12.09256115 55.92321843 -11.97316074 46.29215336 C-11.91789123 41.82052694 -11.86446493 37.34889403 -11.81518555 32.87719727 C-11.76760123 28.56536921 -11.71526084 24.25362319 -11.65955925 19.94189262 C-11.63910872 18.29320748 -11.62040019 16.64449982 -11.60342598 14.99577522 C-11.57944141 12.69444727 -11.54937923 10.39327578 -11.51782227 8.09204102 C-11.50227798 6.77965958 -11.4867337 5.46727814 -11.47071838 4.11512756 C-11.13304514 -2.13724956 -5.06968111 0.0224543 0 0 Z M7.6875 15.18554688 C7.6875 21.12554687 7.6875 27.06554687 7.6875 33.18554688 C16.04761096 33.52278313 16.04761096 33.52278313 22.5 29.49804688 C24.22312029 26.14249684 24.20958089 23.90537322 23.6875 20.18554688 C21.61762418 17.11411824 20.06870723 15.52846729 16.421875 14.62304688 C11.92107593 13.9502358 11.92107593 13.9502358 7.6875 15.18554688 Z " fill="#010101" transform="translate(690.3125,168.814453125)"/>
<path d="M0 0 C0.74886475 0.00523682 1.49772949 0.01047363 2.26928711 0.01586914 C3.36188843 0.01961548 3.36188843 0.01961548 4.4765625 0.0234375 C5.40718506 0.0325415 6.33780762 0.04164551 7.29663086 0.05102539 C11.72069336 0.08196289 11.72069336 0.08196289 16.23413086 0.11352539 C16.72913086 14.46852539 16.72913086 14.46852539 17.23413086 29.11352539 C18.22413086 29.11352539 19.21413086 29.11352539 20.23413086 29.11352539 C20.50741211 28.40164062 20.78069336 27.68975586 21.06225586 26.95629883 C23.13188055 21.93573427 25.72948286 17.17788417 28.23413086 12.36352539 C28.78069336 11.2974707 29.32725586 10.23141602 29.89038086 9.13305664 C30.41631836 8.12114258 30.94225586 7.10922852 31.48413086 6.06665039 C32.20342773 4.67687988 32.20342773 4.67687988 32.93725586 3.2590332 C34.23413086 1.11352539 34.23413086 1.11352539 36.23413086 0.11352539 C37.60961242 0.03043901 38.98898882 0.00616524 40.36694336 0.01586914 C41.17260742 0.0190918 41.97827148 0.02231445 42.80834961 0.02563477 C44.07098633 0.03820312 44.07098633 0.03820312 45.35913086 0.05102539 C46.20862305 0.05553711 47.05811523 0.06004883 47.93334961 0.06469727 C50.03363995 0.07649665 52.13389416 0.09443233 54.23413086 0.11352539 C54.72913086 1.10352539 54.72913086 1.10352539 55.23413086 2.11352539 C54.24951172 4.30908203 54.24951172 4.30908203 52.69897461 7.02368164 C52.13629883 8.01432617 51.57362305 9.0049707 50.99389648 10.02563477 C50.39254883 11.06526367 49.79120117 12.10489258 49.17163086 13.17602539 C48.59735352 14.18858398 48.02307617 15.20114258 47.43139648 16.24438477 C43.92945919 22.36783995 40.23971397 28.30693987 36.23413086 34.11352539 C36.85151123 34.39848877 37.4688916 34.68345215 38.10498047 34.97705078 C43.32015374 37.76074893 45.16815922 42.89818182 47.17163086 48.17602539 C47.68236311 49.50583177 48.19409707 50.83525383 48.70678711 52.16430664 C48.95960449 52.8251123 49.21242188 53.48591797 49.47290039 54.16674805 C50.99579043 58.06140011 52.68526861 61.88784248 54.35131836 65.72290039 C55.23413086 68.11352539 55.23413086 68.11352539 55.23413086 71.11352539 C56.22413086 71.60852539 56.22413086 71.60852539 57.23413086 72.11352539 C56.24413086 72.11352539 55.25413086 72.11352539 54.23413086 72.11352539 C54.23413086 72.77352539 54.23413086 73.43352539 54.23413086 74.11352539 C51.56316392 75.44900886 49.40373662 75.35616101 46.42163086 75.42602539 C45.38393555 75.4634082 44.34624023 75.50079102 43.27709961 75.53930664 C39.30106905 74.9829686 37.94381012 74.09010127 35.23413086 71.11352539 C33.73483452 68.05945765 32.66689805 64.90564327 31.60913086 61.67602539 C29.34797994 53.87040541 29.34797994 53.87040541 25.23413086 47.11352539 C22.27447497 46.11344546 19.32362924 45.54748009 16.23413086 45.11352539 C16.24198608 46.42341431 16.24198608 46.42341431 16.25 47.75976562 C16.26700837 50.98941812 16.27956455 54.21904784 16.2890625 57.44873047 C16.29410165 58.84847767 16.30093302 60.24821959 16.30957031 61.64794922 C16.32165406 63.65598316 16.32682893 65.66405497 16.33178711 67.67211914 C16.33964233 69.48667603 16.33964233 69.48667603 16.34765625 71.33789062 C16.23413086 74.11352539 16.23413086 74.11352539 15.23413086 75.11352539 C12.37145519 75.18677707 9.53341186 75.20590744 6.67163086 75.17602539 C5.86532227 75.17151367 5.05901367 75.16700195 4.22827148 75.16235352 C2.2301933 75.15053057 0.23215303 75.13259453 -1.76586914 75.11352539 C-3.23445387 72.17635593 -2.89321209 69.57205295 -2.89526367 66.29296875 C-2.89789215 65.24155449 -2.89789215 65.24155449 -2.90057373 64.16889954 C-2.9049828 61.84703105 -2.90205789 59.52523843 -2.89868164 57.20336914 C-2.89935488 55.59436529 -2.90032506 53.98536154 -2.90158081 52.37635803 C-2.90305644 49.00284864 -2.90090726 45.6293657 -2.89624023 42.25585938 C-2.89053845 37.92219663 -2.89382564 33.58859575 -2.8998127 29.25493526 C-2.90341805 25.93249542 -2.90227993 22.61007036 -2.89968491 19.28763008 C-2.8990158 17.68916377 -2.89984349 16.09069614 -2.90216446 14.49223137 C-2.90469105 12.26301364 -2.90085054 10.03389761 -2.89526367 7.8046875 C-2.89446808 6.53386826 -2.89367249 5.26304901 -2.89285278 3.95372009 C-2.72391338 0.17511679 -2.72391338 0.17511679 0 0 Z " fill="#010101" transform="translate(1225.765869140625,168.886474609375)"/>
<path d="M0 0 C2.24940295 -0.08119503 4.49964871 -0.13927819 6.75 -0.1875 C8.00296875 -0.22230469 9.2559375 -0.25710937 10.546875 -0.29296875 C14.17409558 0.01477055 15.51165607 0.40898169 18 3 C18.94617593 5.8385278 19.1341954 7.63123218 19.15771484 10.57568359 C19.16797699 11.50029388 19.17823914 12.42490417 19.18881226 13.37753296 C19.19611359 14.37443146 19.20341492 15.37132996 19.2109375 16.3984375 C19.23900359 18.50782029 19.26766804 20.61719519 19.296875 22.7265625 C19.33815313 26.05338339 19.37504001 29.38005652 19.40136719 32.70703125 C19.42897348 35.91697633 19.47484253 39.12625074 19.5234375 42.3359375 C19.52669037 43.32878754 19.52994324 44.32163757 19.53329468 45.34457397 C19.63792157 52.16883444 19.63792157 52.16883444 23 58 C26.05287544 59.8656461 27.90438162 60.00170747 31.5 59.9375 C35.87860255 58.76466003 37.41043674 57.73201764 40 54 C41.32768439 47.35398226 41.12572474 40.40139264 41.0625 33.65234375 C41.05871338 32.71443497 41.05492676 31.77652618 41.05102539 30.81019592 C41.03893089 27.85258096 41.02027551 24.89506945 41 21.9375 C40.97349738 18.00911767 40.95350724 14.08078118 40.9375 10.15234375 C40.92920166 9.24830307 40.92090332 8.34426239 40.91235352 7.41282654 C40.90383057 5.27503504 40.94651469 3.13713931 41 1 C42 0 42 0 45.81640625 -0.09765625 C47.39846682 -0.09098089 48.98051159 -0.07901875 50.5625 -0.0625 C51.36880859 -0.05798828 52.17511719 -0.05347656 53.00585938 -0.04882812 C55.00393756 -0.03700518 57.00197783 -0.01906914 59 0 C60.19499315 4.69809126 60.14445699 9.25824288 60.1328125 14.0703125 C60.13376923 14.94718719 60.13472595 15.82406189 60.13571167 16.72750854 C60.13639092 18.58168611 60.13455441 20.43586609 60.13037109 22.29003906 C60.12505787 25.09445711 60.13030472 27.89871217 60.13671875 30.703125 C60.15201969 59.90496999 60.15201969 59.90496999 52.39453125 68.8515625 C44.61288672 76.08119106 36.23572349 76.60691802 26.0703125 76.27734375 C18.09765856 75.83886598 12.57649248 73.53158257 6.7265625 68.03125 C1.55950174 61.95235499 -0.13255524 54.48020508 -0.11352539 46.65893555 C-0.11344986 45.6182341 -0.11337433 44.57753265 -0.11329651 43.5052948 C-0.10813522 42.3936647 -0.10297394 41.28203461 -0.09765625 40.13671875 C-0.0962413 38.98959915 -0.09482635 37.84247955 -0.09336853 36.66059875 C-0.08777861 33.00287246 -0.07522789 29.34520775 -0.0625 25.6875 C-0.0574837 23.20507901 -0.05292102 20.72265706 -0.04882812 18.24023438 C-0.03781247 12.1601353 -0.0210843 6.08007205 0 0 Z " fill="#010101" transform="translate(597,169)"/>
<path d="M0 0 C0.33 0 0.66 0 1 0 C1.19484938 2.43711614 1.38115178 4.87437398 1.5625 7.3125 C1.64661133 8.34793945 1.64661133 8.34793945 1.73242188 9.40429688 C1.96581505 12.62512274 2.03224218 14.90327345 1 18 C-9.56 18 -20.12 18 -31 18 C-31 21.96 -31 25.92 -31 30 C-29.02 30 -27.04 30 -25 30 C-25 30.33 -25 30.66 -25 31 C-18.73 31.33 -12.46 31.66 -6 32 C-6 36.95 -6 41.9 -6 47 C-14.25 47 -22.5 47 -31 47 C-31 51.29 -31 55.58 -31 60 C-20.11 60 -9.22 60 2 60 C2 71 2 71 0.1875 74.125 C-3.80196847 77.54454441 -7.9292854 77.17483495 -12.921875 77.203125 C-13.70008606 77.20882507 -14.47829712 77.21452515 -15.28009033 77.22039795 C-16.92759851 77.22984056 -18.57512552 77.236379 -20.22265625 77.24023438 C-22.72690412 77.24991076 -25.23032071 77.280928 -27.734375 77.3125 C-29.33853682 77.31903353 -30.94270448 77.32428263 -32.546875 77.328125 C-33.28879089 77.3404718 -34.03070679 77.3528186 -34.79510498 77.36553955 C-39.89906446 77.34398188 -43.54499388 76.57803098 -48 74 C-50.71427372 69.89385123 -50.34641389 64.94753743 -50.4140625 60.16796875 C-50.43351929 59.30661819 -50.45297607 58.44526764 -50.47302246 57.55781555 C-50.53329441 54.76780998 -50.57966205 51.97778496 -50.625 49.1875 C-50.66210684 47.27863623 -50.69970551 45.36978196 -50.73779297 43.4609375 C-50.93513781 33.14181857 -51.09054458 22.82103904 -51.125 12.5 C-51.12967285 11.53602295 -51.1343457 10.5720459 -51.13916016 9.57885742 C-51.12376266 3.24752532 -51.12376266 3.24752532 -50 1 C-43.36141777 0.97467746 -36.72284797 0.95714472 -30.08422852 0.94506836 C-27.8251092 0.94003474 -25.56599314 0.93320738 -23.30688477 0.92456055 C-20.06265457 0.91245255 -16.81846739 0.90676201 -13.57421875 0.90234375 C-12.05534309 0.89460182 -12.05534309 0.89460182 -10.50578308 0.88670349 C-9.56503433 0.88662796 -8.62428558 0.88655243 -7.6550293 0.88647461 C-6.82674118 0.884254 -5.99845306 0.88203339 -5.14506531 0.87974548 C-3 1 -3 1 0 2 C0 1.34 0 0.68 0 0 Z " fill="#010101" transform="translate(937,167)"/>
<path d="M0 0 C7.26 0 14.52 0 22 0 C23.96113765 3.9222753 25.46750713 7.04761193 26.72998047 11.10888672 C27.03394745 12.07784882 27.33791443 13.04681091 27.65109253 14.0451355 C27.96990387 15.07953766 28.28871521 16.11393982 28.6171875 17.1796875 C29.12573776 18.80803024 29.12573776 18.80803024 29.64456177 20.4692688 C30.72617697 23.93637135 31.80070847 27.40562204 32.875 30.875 C33.58937312 33.16941742 34.3042124 35.46368975 35.01953125 37.7578125 C36.39522238 42.17173653 37.76701597 46.58684125 39.13574219 51.00292969 C40.28731874 54.7153281 41.44735879 58.42474096 42.62207031 62.12988281 C42.85975128 62.88141632 43.09743225 63.63294983 43.34231567 64.40725708 C43.95672409 66.34655849 44.57417183 68.28489627 45.19189453 70.22314453 C46 73 46 73 46 75 C39.73 75 33.46 75 27 75 C23 63.5 23 63.5 23 59 C15.74 59.33 8.48 59.66 1 60 C-0.27499705 64.5613675 -0.27499705 64.5613675 -1.54272461 69.12475586 C-2.88888889 73.88888889 -2.88888889 73.88888889 -4 75 C-5.34267413 75.08631874 -6.68974322 75.10706473 -8.03515625 75.09765625 C-8.84404297 75.09443359 -9.65292969 75.09121094 -10.48632812 75.08789062 C-11.33646484 75.07951172 -12.18660156 75.07113281 -13.0625 75.0625 C-13.91650391 75.05798828 -14.77050781 75.05347656 -15.65039062 75.04882812 C-17.76695663 75.03700373 -19.88348685 75.01906769 -22 75 C-23 73 -23 73 -22.33837891 70.47924805 C-21.97147949 69.41746338 -21.60458008 68.35567871 -21.2265625 67.26171875 C-20.81776855 66.06200439 -20.40897461 64.86229004 -19.98779297 63.6262207 C-19.76557068 62.98431793 -19.54334839 62.34241516 -19.31439209 61.68106079 C-18.14553886 58.30101045 -17.00318186 54.91202918 -15.859375 51.5234375 C-15.62302338 50.82473038 -15.38667175 50.12602325 -15.14315796 49.40614319 C-12.82870464 42.54099212 -10.62382328 35.64334397 -8.47088623 28.72598267 C-7.88192511 26.8347376 -7.28791568 24.94506705 -6.69384766 23.05541992 C-6.3385498 21.90920166 -5.98325195 20.7629834 -5.6171875 19.58203125 C-5.30378418 18.57374268 -4.99038086 17.5654541 -4.66748047 16.52661133 C-3.87229126 13.95213323 -3.87229126 13.95213323 -4 11 C-3.34 11 -2.68 11 -2 11 C-1.855625 10.113125 -1.71125 9.22625 -1.5625 8.3125 C-1.09049787 5.53293192 -0.55292178 2.76460888 0 0 Z M11 19 C9.83117464 22.97853587 8.66530074 26.95793049 7.5 30.9375 C7.16613281 32.07380859 6.83226562 33.21011719 6.48828125 34.38085938 C6.17246094 35.46044922 5.85664062 36.54003906 5.53125 37.65234375 C5.23798828 38.65257568 4.94472656 39.65280762 4.64257812 40.68334961 C3.95545292 42.75991697 3.95545292 42.75991697 4 44 C8.62 44 13.24 44 18 44 C16.43715185 35.53457253 14.27813798 27.29419168 12 19 C11.67 19 11.34 19 11 19 Z " fill="#010101" transform="translate(1079,169)"/>
<path d="M0 0 C0.99398804 0.00012085 0.99398804 0.00012085 2.00805664 0.00024414 C3.98978824 -0.00191018 5.97148085 -0.02032122 7.953125 -0.0390625 C28.46130834 -0.07024575 28.46130834 -0.07024575 36.68164062 7.68554688 C41.66936521 12.95375475 43.70035218 18.53206301 44.46679688 25.68554688 C43.60752192 33.70544641 40.78746608 40.69519262 34.84179688 46.31054688 C25.62923363 52.59184 19.09337863 52.81882748 8.09179688 53.18554688 C8.09179688 60.44554687 8.09179688 67.70554687 8.09179688 75.18554688 C2.15179687 75.18554688 -3.78820312 75.18554688 -9.90820312 75.18554688 C-10.7535672 70.9587265 -11.03479711 67.56492678 -11.03759766 63.29980469 C-11.03934998 62.62768448 -11.04110229 61.95556427 -11.04290771 61.26307678 C-11.04728783 59.0549151 -11.04440316 56.84683429 -11.04101562 54.63867188 C-11.04168945 53.10121648 -11.04266014 51.56376119 -11.04391479 50.02630615 C-11.04538629 46.81196066 -11.04325366 43.59764303 -11.03857422 40.38330078 C-11.032858 36.25486681 -11.03617131 32.12649758 -11.04214668 27.99806595 C-11.04575073 24.82746894 -11.04461477 21.65688744 -11.04201889 18.48628998 C-11.04135018 16.96318301 -11.0421761 15.44007465 -11.04449844 13.9169693 C-11.04702448 11.79584487 -11.04318601 9.67482736 -11.03759766 7.55371094 C-11.03680206 6.34523499 -11.03600647 5.13675903 -11.03518677 3.8916626 C-10.75715742 -2.03334924 -4.7374637 0.0218093 0 0 Z M8.09179688 15.18554688 C8.09179688 22.77554688 8.09179688 30.36554688 8.09179688 38.18554688 C16.90399013 38.58368499 16.90399013 38.58368499 23.09179688 34.18554688 C25.60914644 30.35479754 25.25821902 26.65961329 24.63085938 22.27539062 C23.84946823 19.24608439 22.67724903 17.90918164 20.09179688 16.18554688 C15.9676825 14.84799627 12.59583275 15.18554688 8.09179688 15.18554688 Z " fill="#010101" transform="translate(537.908203125,168.814453125)"/>
<path d="M0 0 C21.94946809 0 21.94946809 0 29.5625 0.9375 C30.7680957 1.06801758 30.7680957 1.06801758 31.99804688 1.20117188 C39.21956348 2.02249011 42.60873525 4.4948655 47.625 9.75 C53.15936038 16.76833714 53.84924603 24.25984298 53 33 C51.6242535 39.75262238 47.8534012 45.28740837 42.21875 49.25390625 C34.86815825 53.3358947 26.29845993 54.36882044 18 54 C18.33 54.99 18.66 55.98 19 57 C19.01546261 58.48354153 18.96835798 59.96829574 18.87890625 61.44921875 C18.83056641 62.29677734 18.78222656 63.14433594 18.73242188 64.01757812 C18.67634766 64.89865234 18.62027344 65.77972656 18.5625 66.6875 C18.51029297 67.58017578 18.45808594 68.47285156 18.40429688 69.39257812 C18.27472126 71.59536351 18.13804014 73.79772885 18 76 C12.06 76 6.12 76 0 76 C0 50.92 0 25.84 0 0 Z M18 16 C18 23.59 18 31.18 18 39 C21.06997724 40.53498862 23.48692358 39.64123096 26.734375 38.83984375 C29.53426393 37.80195389 31.45115354 36.36696171 33.18359375 33.91015625 C34.8570873 29.99466176 34.87351645 26.12684938 34 22 C31.47323961 18.65374976 29.96066458 17.32022153 26 16 C23.36 16 20.72 16 18 16 Z " fill="#010101" transform="translate(753,168)"/>
<path d="M0 0 C1.55654297 -0.00386719 1.55654297 -0.00386719 3.14453125 -0.0078125 C5.94092942 0.11423825 8.46689879 0.49136645 11.1875 1.125 C11.92880126 4.46895223 12.33211968 7.61308483 12.40869141 11.03540039 C12.43186432 11.98310806 12.45503723 12.93081573 12.47891235 13.90724182 C12.4987619 14.91882858 12.51861145 15.93041534 12.5390625 16.97265625 C12.56221527 18.02150497 12.58536804 19.0703537 12.60922241 20.15098572 C12.6567565 22.36403799 12.70200297 24.57714042 12.74511719 26.7902832 C12.81232642 30.17874855 12.89008576 33.5668616 12.96875 36.95507812 C13.01365862 39.10675762 13.0579504 41.25845009 13.1015625 43.41015625 C13.12546051 44.42376724 13.14935852 45.43737823 13.17398071 46.48170471 C13.1908493 47.42626022 13.2077179 48.37081573 13.22509766 49.34399414 C13.24206696 50.17274551 13.25903625 51.00149689 13.27651978 51.85536194 C13.1875 54.125 13.1875 54.125 12.1875 58.125 C21.7575 58.125 31.3275 58.125 41.1875 58.125 C41.1875 69.69642857 41.1875 69.69642857 38.1875 73.125 C34.59155604 75.54346847 30.94100596 75.43134818 26.75390625 75.42578125 C26.03895493 75.43006638 25.3240036 75.4343515 24.58738708 75.43876648 C23.07869524 75.44449654 21.56997577 75.4450198 20.0612793 75.44067383 C17.76107339 75.43751521 15.46215629 75.46098258 13.16210938 75.48632812 C11.69270995 75.48860151 10.22330708 75.48930443 8.75390625 75.48828125 C8.07042618 75.497491 7.38694611 75.50670074 6.68275452 75.51618958 C2.34408982 75.47444601 -0.37042499 74.78767833 -3.8125 72.125 C-14.33775565 56.33711653 -7.90127178 19.80121716 -7.8125 1.125 C-5.12423174 -0.21913413 -3.00014598 -0.00739863 0 0 Z " fill="#010101" transform="translate(829.8125,168.875)"/>
<path d="M0 0 C1.98 0 3.96 0 6 0 C6 0.33 6 0.66 6 1 C4.02 1 2.04 1 0 1 C0 0.67 0 0.34 0 0 Z " fill="#000000" transform="translate(333,97)"/>
<path d="M0 0 C4 1 4 1 4 1 Z " fill="#000000" transform="translate(914,197)"/>
<path d="M0 0 C3 1 3 1 3 1 Z " fill="#000000" transform="translate(320,372)"/>
<path d="" fill="#000000" transform="translate(0,0)"/>
<path d="M0 0 C3 1 3 1 3 1 Z " fill="#000000" transform="translate(934,225)"/>
<path d="M0 0 C3 1 3 1 3 1 Z " fill="#000000" transform="translate(912,215)"/>
<path d="" fill="#000000" transform="translate(0,0)"/>
<path d="M0 0 C3 1 3 1 3 1 Z " fill="#000000" transform="translate(923,197)"/>
<path d="M0 0 C0.33 0.66 0.66 1.32 1 2 C0.34 1.67 -0.32 1.34 -1 1 C-0.67 0.67 -0.34 0.34 0 0 Z " fill="#000000" transform="translate(935,166)"/>
<path d="M0 0 C0.66 0.66 1.32 1.32 2 2 C1.34 2 0.68 2 0 2 C0 1.34 0 0.68 0 0 Z " fill="#000000" transform="translate(23,138)"/>
<path d="M0 0 C3 1 3 1 3 1 Z " fill="#000000" transform="translate(359,95)"/>
<path d="M0 0 C2 1 2 1 2 1 Z " fill="#000000" transform="translate(933,392)"/>
<path d="M0 0 C2 1 2 1 2 1 Z " fill="#000000" transform="translate(933,368)"/>
<path d="M0 0 C2 1 2 1 2 1 Z " fill="#000000" transform="translate(428,368)"/>
<path d="M0 0 C2 1 2 1 2 1 Z " fill="#000000" transform="translate(933,288)"/>
<path d="M0 0 C2 1 2 1 2 1 Z " fill="#000000" transform="translate(253,249)"/>
<path d="M0 0 C2 1 2 1 2 1 Z " fill="#000000" transform="translate(247,249)"/>
<path d="M0 0 C2 1 2 1 2 1 Z " fill="#000000" transform="translate(240,249)"/>
<path d="M0 0 C2 1 2 1 2 1 Z " fill="#000000" transform="translate(884,240)"/>
<path d="" fill="#000000" transform="translate(0,0)"/>
<path d="" fill="#000000" transform="translate(0,0)"/>
<path d="" fill="#000000" transform="translate(0,0)"/>
<path d="" fill="#000000" transform="translate(0,0)"/>
<path d="M0 0 C2 1 2 1 2 1 Z " fill="#000000" transform="translate(1255,174)"/>
<path d="M0 0 C2 1 2 1 2 1 Z " fill="#000000" transform="translate(601,167)"/>
<path d="" fill="#000000" transform="translate(0,0)"/>
<path d="M0 0 C2 1 2 1 2 1 Z " fill="#000000" transform="translate(791,162)"/>
<path d="" fill="#000000" transform="translate(0,0)"/>
<path d="" fill="#000000" transform="translate(0,0)"/>
<path d="M0 0 C2 1 2 1 2 1 Z " fill="#000000" transform="translate(840,128)"/>
<path d="M0 0 C2 1 2 1 2 1 Z " fill="#000000" transform="translate(89,125)"/>
<path d="M0 0 C2 1 2 1 2 1 Z " fill="#000000" transform="translate(933,120)"/>
<path d="M0 0 C2 1 2 1 2 1 Z " fill="#000000" transform="translate(933,104)"/>
<path d="M0 0 C2 1 2 1 2 1 Z " fill="#000000" transform="translate(933,64)"/>
<path d="M0 0 C2 1 2 1 2 1 Z " fill="#000000" transform="translate(933,48)"/>
<path d="M0 0 C2 1 2 1 2 1 Z " fill="#000000" transform="translate(933,40)"/>
<path d="" fill="#000000" transform="translate(0,0)"/>
<path d="" fill="#000000" transform="translate(0,0)"/>
<path d="" fill="#000000" transform="translate(0,0)"/>
<path d="" fill="#000000" transform="translate(0,0)"/>
<path d="" fill="#000000" transform="translate(0,0)"/>
<path d="" fill="#000000" transform="translate(0,0)"/>
<path d="" fill="#000000" transform="translate(0,0)"/>
<path d="" fill="#000000" transform="translate(0,0)"/>
<path d="" fill="#000000" transform="translate(0,0)"/>
<path d="" fill="#000000" transform="translate(0,0)"/>
<path d="" fill="#000000" transform="translate(0,0)"/>
<path d="" fill="#000000" transform="translate(0,0)"/>
<path d="" fill="#000000" transform="translate(0,0)"/>
<path d="" fill="#000000" transform="translate(0,0)"/>
<path d="" fill="#000000" transform="translate(0,0)"/>
<path d="" fill="#000000" transform="translate(0,0)"/>
<path d="" fill="#000000" transform="translate(0,0)"/>
<path d="" fill="#000000" transform="translate(0,0)"/>
<path d="" fill="#000000" transform="translate(0,0)"/>
<path d="" fill="#000000" transform="translate(0,0)"/>
<path d="" fill="#000000" transform="translate(0,0)"/>
<path d="" fill="#000000" transform="translate(0,0)"/>
<path d="" fill="#000000" transform="translate(0,0)"/>
<path d="" fill="#000000" transform="translate(0,0)"/>
<path d="" fill="#000000" transform="translate(0,0)"/>
<path d="" fill="#000000" transform="translate(0,0)"/>
<path d="" fill="#000000" transform="translate(0,0)"/>
<path d="" fill="#000000" transform="translate(0,0)"/>
<path d="" fill="#000000" transform="translate(0,0)"/>
<path d="" fill="#000000" transform="translate(0,0)"/>
<path d="" fill="#000000" transform="translate(0,0)"/>
<path d="" fill="#000000" transform="translate(0,0)"/>
<path d="" fill="#000000" transform="translate(0,0)"/>
<path d="" fill="#000000" transform="translate(0,0)"/>
<path d="" fill="#000000" transform="translate(0,0)"/>
<path d="" fill="#000000" transform="translate(0,0)"/>
<path d="" fill="#000000" transform="translate(0,0)"/>
<path d="" fill="#000000" transform="translate(0,0)"/>
<path d="" fill="#000000" transform="translate(0,0)"/>
<path d="" fill="#000000" transform="translate(0,0)"/>
<path d="" fill="#000000" transform="translate(0,0)"/>
<path d="" fill="#000000" transform="translate(0,0)"/>
<path d="" fill="#000000" transform="translate(0,0)"/>
<path d="" fill="#000000" transform="translate(0,0)"/>
<path d="" fill="#000000" transform="translate(0,0)"/>
<path d="" fill="#000000" transform="translate(0,0)"/>
<path d="" fill="#000000" transform="translate(0,0)"/>
<path d="" fill="#000000" transform="translate(0,0)"/>
<path d="" fill="#000000" transform="translate(0,0)"/>
<path d="" fill="#000000" transform="translate(0,0)"/>
<path d="" fill="#000000" transform="translate(0,0)"/>
<path d="" fill="#000000" transform="translate(0,0)"/>
<path d="" fill="#000000" transform="translate(0,0)"/>
<path d="" fill="#000000" transform="translate(0,0)"/>
<path d="" fill="#000000" transform="translate(0,0)"/>
<path d="" fill="#000000" transform="translate(0,0)"/>
<path d="" fill="#000000" transform="translate(0,0)"/>
<path d="" fill="#000000" transform="translate(0,0)"/>
<path d="" fill="#000000" transform="translate(0,0)"/>
<path d="" fill="#000000" transform="translate(0,0)"/>
<path d="" fill="#000000" transform="translate(0,0)"/>
<path d="" fill="#000000" transform="translate(0,0)"/>
<path d="" fill="#000000" transform="translate(0,0)"/>
<path d="" fill="#000000" transform="translate(0,0)"/>
<path d="" fill="#000000" transform="translate(0,0)"/>
<path d="" fill="#000000" transform="translate(0,0)"/>
<path d="" fill="#000000" transform="translate(0,0)"/>
<path d="" fill="#000000" transform="translate(0,0)"/>
<path d="" fill="#000000" transform="translate(0,0)"/>
<path d="" fill="#000000" transform="translate(0,0)"/>
<path d="" fill="#000000" transform="translate(0,0)"/>
<path d="" fill="#000000" transform="translate(0,0)"/>
<path d="" fill="#000000" transform="translate(0,0)"/>
<path d="" fill="#000000" transform="translate(0,0)"/>
<path d="" fill="#000000" transform="translate(0,0)"/>
<path d="" fill="#000000" transform="translate(0,0)"/>
<path d="" fill="#000000" transform="translate(0,0)"/>
<path d="" fill="#000000" transform="translate(0,0)"/>
<path d="" fill="#000000" transform="translate(0,0)"/>
<path d="" fill="#000000" transform="translate(0,0)"/>
<path d="" fill="#000000" transform="translate(0,0)"/>
<path d="" fill="#000000" transform="translate(0,0)"/>
<path d="" fill="#000000" transform="translate(0,0)"/>
<path d="" fill="#000000" transform="translate(0,0)"/>
<path d="" fill="#000000" transform="translate(0,0)"/>
<path d="" fill="#000000" transform="translate(0,0)"/>
<path d="" fill="#000000" transform="translate(0,0)"/>
<path d="" fill="#000000" transform="translate(0,0)"/>
<path d="" fill="#000000" transform="translate(0,0)"/>
<path d="" fill="#000000" transform="translate(0,0)"/>
<path d="" fill="#000000" transform="translate(0,0)"/>
<path d="" fill="#000000" transform="translate(0,0)"/>
<path d="" fill="#000000" transform="translate(0,0)"/>
<path d="" fill="#000000" transform="translate(0,0)"/>
<path d="" fill="#000000" transform="translate(0,0)"/>
<path d="" fill="#000000" transform="translate(0,0)"/>
<path d="" fill="#000000" transform="translate(0,0)"/>
<path d="" fill="#000000" transform="translate(0,0)"/>
<path d="" fill="#000000" transform="translate(0,0)"/>
<path d="" fill="#000000" transform="translate(0,0)"/>
<path d="" fill="#000000" transform="translate(0,0)"/>
<path d="" fill="#000000" transform="translate(0,0)"/>
<path d="" fill="#000000" transform="translate(0,0)"/>
<path d="" fill="#000000" transform="translate(0,0)"/>
<path d="" fill="#000000" transform="translate(0,0)"/>
<path d="" fill="#000000" transform="translate(0,0)"/>
<path d="" fill="#000000" transform="translate(0,0)"/>
<path d="" fill="#000000" transform="translate(0,0)"/>
<path d="" fill="#000000" transform="translate(0,0)"/>
<path d="" fill="#000000" transform="translate(0,0)"/>
<path d="" fill="#000000" transform="translate(0,0)"/>
<path d="" fill="#000000" transform="translate(0,0)"/>
<path d="" fill="#000000" transform="translate(0,0)"/>
<path d="" fill="#000000" transform="translate(0,0)"/>
<path d="" fill="#000000" transform="translate(0,0)"/>
<path d="" fill="#000000" transform="translate(0,0)"/>
<path d="" fill="#000000" transform="translate(0,0)"/>
<path d="" fill="#000000" transform="translate(0,0)"/>
<path d="" fill="#000000" transform="translate(0,0)"/>
<path d="" fill="#000000" transform="translate(0,0)"/>
<path d="" fill="#000000" transform="translate(0,0)"/>
<path d="" fill="#000000" transform="translate(0,0)"/>
<path d="" fill="#000000" transform="translate(0,0)"/>
<path d="" fill="#000000" transform="translate(0,0)"/>
<path d="" fill="#000000" transform="translate(0,0)"/>
<path d="" fill="#000000" transform="translate(0,0)"/>
<path d="" fill="#000000" transform="translate(0,0)"/>
<path d="" fill="#000000" transform="translate(0,0)"/>
<path d="" fill="#000000" transform="translate(0,0)"/>
<path d="" fill="#000000" transform="translate(0,0)"/>
<path d="" fill="#000000" transform="translate(0,0)"/>
<path d="" fill="#000000" transform="translate(0,0)"/>
<path d="" fill="#000000" transform="translate(0,0)"/>
<path d="" fill="#000000" transform="translate(0,0)"/>
<path d="" fill="#000000" transform="translate(0,0)"/>
<path d="" fill="#000000" transform="translate(0,0)"/>
<path d="" fill="#000000" transform="translate(0,0)"/>
<path d="" fill="#000000" transform="translate(0,0)"/>
<path d="" fill="#000000" transform="translate(0,0)"/>
<path d="" fill="#000000" transform="translate(0,0)"/>
<path d="" fill="#000000" transform="translate(0,0)"/>
<path d="" fill="#000000" transform="translate(0,0)"/>
<path d="" fill="#000000" transform="translate(0,0)"/>
<path d="" fill="#000000" transform="translate(0,0)"/>
<path d="" fill="#000000" transform="translate(0,0)"/>
<path d="" fill="#000000" transform="translate(0,0)"/>
<path d="" fill="#000000" transform="translate(0,0)"/>
<path d="" fill="#000000" transform="translate(0,0)"/>
<path d="" fill="#000000" transform="translate(0,0)"/>
<path d="" fill="#000000" transform="translate(0,0)"/>
<path d="" fill="#000000" transform="translate(0,0)"/>
<path d="" fill="#000000" transform="translate(0,0)"/>
<path d="" fill="#000000" transform="translate(0,0)"/>
<path d="" fill="#000000" transform="translate(0,0)"/>
<path d="" fill="#000000" transform="translate(0,0)"/>
<path d="" fill="#000000" transform="translate(0,0)"/>
<path d="" fill="#000000" transform="translate(0,0)"/>
<path d="" fill="#000000" transform="translate(0,0)"/>
<path d="" fill="#000000" transform="translate(0,0)"/>
<path d="" fill="#000000" transform="translate(0,0)"/>
<path d="" fill="#000000" transform="translate(0,0)"/>
<path d="" fill="#000000" transform="translate(0,0)"/>
<path d="" fill="#000000" transform="translate(0,0)"/>
<path d="" fill="#000000" transform="translate(0,0)"/>
<path d="" fill="#000000" transform="translate(0,0)"/>
<path d="" fill="#000000" transform="translate(0,0)"/>
<path d="" fill="#000000" transform="translate(0,0)"/>
<path d="" fill="#000000" transform="translate(0,0)"/>
<path d="" fill="#000000" transform="translate(0,0)"/>
<path d="" fill="#000000" transform="translate(0,0)"/>
<path d="" fill="#000000" transform="translate(0,0)"/>
<path d="" fill="#000000" transform="translate(0,0)"/>
<path d="" fill="#000000" transform="translate(0,0)"/>
<path d="" fill="#000000" transform="translate(0,0)"/>
<path d="" fill="#000000" transform="translate(0,0)"/>
<path d="" fill="#000000" transform="translate(0,0)"/>
<path d="" fill="#000000" transform="translate(0,0)"/>
<path d="" fill="#000000" transform="translate(0,0)"/>
<path d="" fill="#000000" transform="translate(0,0)"/>
<path d="" fill="#000000" transform="translate(0,0)"/>
<path d="" fill="#000000" transform="translate(0,0)"/>
<path d="" fill="#000000" transform="translate(0,0)"/>
<path d="" fill="#000000" transform="translate(0,0)"/>
<path d="" fill="#000000" transform="translate(0,0)"/>
<path d="" fill="#000000" transform="translate(0,0)"/>
<path d="" fill="#000000" transform="translate(0,0)"/>
<path d="" fill="#000000" transform="translate(0,0)"/>
<path d="" fill="#000000" transform="translate(0,0)"/>
<path d="" fill="#000000" transform="translate(0,0)"/>
<path d="" fill="#000000" transform="translate(0,0)"/>
<path d="" fill="#000000" transform="translate(0,0)"/>
<path d="" fill="#000000" transform="translate(0,0)"/>
<path d="" fill="#000000" transform="translate(0,0)"/>
<path d="" fill="#000000" transform="translate(0,0)"/>
<path d="" fill="#000000" transform="translate(0,0)"/>
<path d="" fill="#000000" transform="translate(0,0)"/>
<path d="" fill="#000000" transform="translate(0,0)"/>
<path d="" fill="#000000" transform="translate(0,0)"/>
<path d="" fill="#000000" transform="translate(0,0)"/>
<path d="" fill="#000000" transform="translate(0,0)"/>
<path d="" fill="#000000" transform="translate(0,0)"/>
<path d="" fill="#000000" transform="translate(0,0)"/>
<path d="" fill="#000000" transform="translate(0,0)"/>
<path d="" fill="#000000" transform="translate(0,0)"/>
<path d="" fill="#000000" transform="translate(0,0)"/>
<path d="" fill="#000000" transform="translate(0,0)"/>
<path d="" fill="#000000" transform="translate(0,0)"/>
<path d="" fill="#000000" transform="translate(0,0)"/>
<path d="" fill="#000000" transform="translate(0,0)"/>
<path d="" fill="#000000" transform="translate(0,0)"/>
<path d="" fill="#000000" transform="translate(0,0)"/>
<path d="" fill="#000000" transform="translate(0,0)"/>
<path d="" fill="#000000" transform="translate(0,0)"/>
<path d="" fill="#000000" transform="translate(0,0)"/>
<path d="" fill="#000000" transform="translate(0,0)"/>
<path d="" fill="#000000" transform="translate(0,0)"/>
<path d="" fill="#000000" transform="translate(0,0)"/>
<path d="" fill="#000000" transform="translate(0,0)"/>
<path d="" fill="#000000" transform="translate(0,0)"/>
<path d="" fill="#000000" transform="translate(0,0)"/>
<path d="" fill="#000000" transform="translate(0,0)"/>
<path d="" fill="#000000" transform="translate(0,0)"/>
<path d="" fill="#000000" transform="translate(0,0)"/>
<path d="" fill="#000000" transform="translate(0,0)"/>
<path d="" fill="#000000" transform="translate(0,0)"/>
<path d="" fill="#000000" transform="translate(0,0)"/>
<path d="" fill="#000000" transform="translate(0,0)"/>
<path d="" fill="#000000" transform="translate(0,0)"/>
<path d="" fill="#000000" transform="translate(0,0)"/>
<path d="" fill="#000000" transform="translate(0,0)"/>
<path d="" fill="#000000" transform="translate(0,0)"/>
<path d="" fill="#000000" transform="translate(0,0)"/>
<path d="" fill="#000000" transform="translate(0,0)"/>
<path d="" fill="#000000" transform="translate(0,0)"/>
<path d="" fill="#000000" transform="translate(0,0)"/>
<path d="" fill="#000000" transform="translate(0,0)"/>
<path d="" fill="#000000" transform="translate(0,0)"/>
<path d="" fill="#000000" transform="translate(0,0)"/>
<path d="" fill="#000000" transform="translate(0,0)"/>
<path d="" fill="#000000" transform="translate(0,0)"/>
<path d="" fill="#000000" transform="translate(0,0)"/>
<path d="" fill="#000000" transform="translate(0,0)"/>
<path d="" fill="#000000" transform="translate(0,0)"/>
<path d="" fill="#000000" transform="translate(0,0)"/>
<path d="" fill="#000000" transform="translate(0,0)"/>
<path d="" fill="#000000" transform="translate(0,0)"/>
<path d="" fill="#000000" transform="translate(0,0)"/>
<path d="" fill="#000000" transform="translate(0,0)"/>
<path d="" fill="#000000" transform="translate(0,0)"/>
<path d="" fill="#000000" transform="translate(0,0)"/>
<path d="" fill="#000000" transform="translate(0,0)"/>
<path d="" fill="#000000" transform="translate(0,0)"/>
<path d="" fill="#000000" transform="translate(0,0)"/>
<path d="" fill="#000000" transform="translate(0,0)"/>
<path d="" fill="#000000" transform="translate(0,0)"/>
<path d="" fill="#000000" transform="translate(0,0)"/>
<path d="" fill="#000000" transform="translate(0,0)"/>
<path d="" fill="#000000" transform="translate(0,0)"/>
<path d="" fill="#000000" transform="translate(0,0)"/>
<path d="" fill="#000000" transform="translate(0,0)"/>
<path d="" fill="#000000" transform="translate(0,0)"/>
<path d="" fill="#000000" transform="translate(0,0)"/>
<path d="" fill="#000000" transform="translate(0,0)"/>
<path d="" fill="#000000" transform="translate(0,0)"/>
<path d="" fill="#000000" transform="translate(0,0)"/>
<path d="" fill="#000000" transform="translate(0,0)"/>
<path d="" fill="#000000" transform="translate(0,0)"/>
<path d="" fill="#000000" transform="translate(0,0)"/>
<path d="" fill="#000000" transform="translate(0,0)"/>
<path d="" fill="#000000" transform="translate(0,0)"/>
<path d="" fill="#000000" transform="translate(0,0)"/>
<path d="" fill="#000000" transform="translate(0,0)"/>
<path d="" fill="#000000" transform="translate(0,0)"/>
<path d="" fill="#000000" transform="translate(0,0)"/>
<path d="" fill="#000000" transform="translate(0,0)"/>
<path d="" fill="#000000" transform="translate(0,0)"/>
<path d="" fill="#000000" transform="translate(0,0)"/>
<path d="" fill="#000000" transform="translate(0,0)"/>
<path d="" fill="#000000" transform="translate(0,0)"/>
<path d="" fill="#000000" transform="translate(0,0)"/>
<path d="" fill="#000000" transform="translate(0,0)"/>
<path d="" fill="#000000" transform="translate(0,0)"/>
<path d="" fill="#000000" transform="translate(0,0)"/>
<path d="" fill="#000000" transform="translate(0,0)"/>
<path d="" fill="#000000" transform="translate(0,0)"/>
<path d="" fill="#000000" transform="translate(0,0)"/>
<path d="" fill="#000000" transform="translate(0,0)"/>
<path d="" fill="#000000" transform="translate(0,0)"/>
<path d="" fill="#000000" transform="translate(0,0)"/>
<path d="" fill="#000000" transform="translate(0,0)"/>
<path d="" fill="#000000" transform="translate(0,0)"/>
<path d="" fill="#000000" transform="translate(0,0)"/>
<path d="" fill="#000000" transform="translate(0,0)"/>
<path d="" fill="#000000" transform="translate(0,0)"/>
<path d="" fill="#000000" transform="translate(0,0)"/>
<path d="" fill="#000000" transform="translate(0,0)"/>
<path d="" fill="#000000" transform="translate(0,0)"/>
<path d="" fill="#000000" transform="translate(0,0)"/>
<path d="" fill="#000000" transform="translate(0,0)"/>
<path d="" fill="#000000" transform="translate(0,0)"/>
<path d="" fill="#000000" transform="translate(0,0)"/>
<path d="" fill="#000000" transform="translate(0,0)"/>
<path d="" fill="#000000" transform="translate(0,0)"/>
<path d="" fill="#000000" transform="translate(0,0)"/>
<path d="" fill="#000000" transform="translate(0,0)"/>
<path d="" fill="#000000" transform="translate(0,0)"/>
<path d="" fill="#000000" transform="translate(0,0)"/>
<path d="" fill="#000000" transform="translate(0,0)"/>
<path d="" fill="#000000" transform="translate(0,0)"/>
<path d="" fill="#000000" transform="translate(0,0)"/>
<path d="" fill="#000000" transform="translate(0,0)"/>
<path d="" fill="#000000" transform="translate(0,0)"/>
<path d="" fill="#000000" transform="translate(0,0)"/>
<path d="" fill="#000000" transform="translate(0,0)"/>
<path d="" fill="#000000" transform="translate(0,0)"/>
<path d="" fill="#000000" transform="translate(0,0)"/>
<path d="" fill="#000000" transform="translate(0,0)"/>
<path d="" fill="#000000" transform="translate(0,0)"/>
<path d="" fill="#000000" transform="translate(0,0)"/>
<path d="" fill="#000000" transform="translate(0,0)"/>
<path d="" fill="#000000" transform="translate(0,0)"/>
<path d="" fill="#000000" transform="translate(0,0)"/>
<path d="" fill="#000000" transform="translate(0,0)"/>
<path d="" fill="#000000" transform="translate(0,0)"/>
<path d="" fill="#000000" transform="translate(0,0)"/>
<path d="" fill="#000000" transform="translate(0,0)"/>
<path d="" fill="#000000" transform="translate(0,0)"/>
<path d="" fill="#000000" transform="translate(0,0)"/>
<path d="" fill="#000000" transform="translate(0,0)"/>
<path d="" fill="#000000" transform="translate(0,0)"/>
<path d="" fill="#000000" transform="translate(0,0)"/>
<path d="" fill="#000000" transform="translate(0,0)"/>
<path d="" fill="#000000" transform="translate(0,0)"/>
<path d="" fill="#000000" transform="translate(0,0)"/>
<path d="" fill="#000000" transform="translate(0,0)"/>
<path d="" fill="#000000" transform="translate(0,0)"/>
<path d="" fill="#000000" transform="translate(0,0)"/>
<path d="" fill="#000000" transform="translate(0,0)"/>
<path d="" fill="#000000" transform="translate(0,0)"/>
<path d="" fill="#000000" transform="translate(0,0)"/>
<path d="" fill="#000000" transform="translate(0,0)"/>
<path d="" fill="#000000" transform="translate(0,0)"/>
<path d="" fill="#000000" transform="translate(0,0)"/>
<path d="" fill="#000000" transform="translate(0,0)"/>
<path d="" fill="#000000" transform="translate(0,0)"/>
<path d="" fill="#000000" transform="translate(0,0)"/>
<path d="" fill="#000000" transform="translate(0,0)"/>
<path d="" fill="#000000" transform="translate(0,0)"/>
<path d="" fill="#000000" transform="translate(0,0)"/>
<path d="" fill="#000000" transform="translate(0,0)"/>
<path d="" fill="#000000" transform="translate(0,0)"/>
<path d="" fill="#000000" transform="translate(0,0)"/>
<path d="" fill="#000000" transform="translate(0,0)"/>
<path d="" fill="#000000" transform="translate(0,0)"/>
<path d="" fill="#000000" transform="translate(0,0)"/>
<path d="" fill="#000000" transform="translate(0,0)"/>
<path d="" fill="#000000" transform="translate(0,0)"/>
<path d="" fill="#000000" transform="translate(0,0)"/>
<path d="" fill="#000000" transform="translate(0,0)"/>
<path d="" fill="#000000" transform="translate(0,0)"/>
<path d="" fill="#000000" transform="translate(0,0)"/>
<path d="" fill="#000000" transform="translate(0,0)"/>
<path d="" fill="#000000" transform="translate(0,0)"/>
<path d="" fill="#000000" transform="translate(0,0)"/>
<path d="" fill="#000000" transform="translate(0,0)"/>
<path d="" fill="#000000" transform="translate(0,0)"/>
<path d="" fill="#000000" transform="translate(0,0)"/>
<path d="" fill="#000000" transform="translate(0,0)"/>
<path d="" fill="#000000" transform="translate(0,0)"/>
<path d="" fill="#000000" transform="translate(0,0)"/>
<path d="" fill="#000000" transform="translate(0,0)"/>
<path d="" fill="#000000" transform="translate(0,0)"/>
<path d="" fill="#000000" transform="translate(0,0)"/>
<path d="" fill="#000000" transform="translate(0,0)"/>
<path d="" fill="#000000" transform="translate(0,0)"/>
<path d="" fill="#000000" transform="translate(0,0)"/>
<path d="" fill="#000000" transform="translate(0,0)"/>
<path d="" fill="#000000" transform="translate(0,0)"/>
<path d="" fill="#000000" transform="translate(0,0)"/>
<path d="" fill="#000000" transform="translate(0,0)"/>
<path d="" fill="#000000" transform="translate(0,0)"/>
<path d="" fill="#000000" transform="translate(0,0)"/>
<path d="" fill="#000000" transform="translate(0,0)"/>
<path d="" fill="#000000" transform="translate(0,0)"/>
<path d="" fill="#000000" transform="translate(0,0)"/>
<path d="" fill="#000000" transform="translate(0,0)"/>
<path d="" fill="#000000" transform="translate(0,0)"/>
<path d="" fill="#000000" transform="translate(0,0)"/>
<path d="" fill="#000000" transform="translate(0,0)"/>
<path d="" fill="#000000" transform="translate(0,0)"/>
<path d="" fill="#000000" transform="translate(0,0)"/>
<path d="" fill="#000000" transform="translate(0,0)"/>
<path d="" fill="#000000" transform="translate(0,0)"/>
<path d="" fill="#000000" transform="translate(0,0)"/>
<path d="" fill="#000000" transform="translate(0,0)"/>
<path d="" fill="#000000" transform="translate(0,0)"/>
<path d="" fill="#000000" transform="translate(0,0)"/>
<path d="" fill="#000000" transform="translate(0,0)"/>
<path d="" fill="#000000" transform="translate(0,0)"/>
<path d="" fill="#000000" transform="translate(0,0)"/>
<path d="" fill="#000000" transform="translate(0,0)"/>
<path d="" fill="#000000" transform="translate(0,0)"/>
<path d="" fill="#000000" transform="translate(0,0)"/>
<path d="" fill="#000000" transform="translate(0,0)"/>
<path d="" fill="#000000" transform="translate(0,0)"/>
<path d="" fill="#000000" transform="translate(0,0)"/>
<path d="" fill="#000000" transform="translate(0,0)"/>
<path d="" fill="#000000" transform="translate(0,0)"/>
<path d="" fill="#000000" transform="translate(0,0)"/>
<path d="" fill="#000000" transform="translate(0,0)"/>
<path d="" fill="#000000" transform="translate(0,0)"/>
<path d="" fill="#000000" transform="translate(0,0)"/>
<path d="" fill="#000000" transform="translate(0,0)"/>
<path d="" fill="#000000" transform="translate(0,0)"/>
<path d="" fill="#000000" transform="translate(0,0)"/>
<path d="" fill="#000000" transform="translate(0,0)"/>
<path d="" fill="#000000" transform="translate(0,0)"/>
<path d="" fill="#000000" transform="translate(0,0)"/>
<path d="" fill="#000000" transform="translate(0,0)"/>
<path d="" fill="#000000" transform="translate(0,0)"/>
<path d="" fill="#000000" transform="translate(0,0)"/>
<path d="" fill="#000000" transform="translate(0,0)"/>
<path d="" fill="#000000" transform="translate(0,0)"/>
<path d="" fill="#000000" transform="translate(0,0)"/>
<path d="" fill="#000000" transform="translate(0,0)"/>
<path d="" fill="#000000" transform="translate(0,0)"/>
<path d="" fill="#000000" transform="translate(0,0)"/>
<path d="" fill="#000000" transform="translate(0,0)"/>
<path d="" fill="#000000" transform="translate(0,0)"/>
<path d="" fill="#000000" transform="translate(0,0)"/>
<path d="" fill="#000000" transform="translate(0,0)"/>
<path d="" fill="#000000" transform="translate(0,0)"/>
<path d="" fill="#000000" transform="translate(0,0)"/>
<path d="" fill="#000000" transform="translate(0,0)"/>
<path d="" fill="#000000" transform="translate(0,0)"/>
<path d="" fill="#000000" transform="translate(0,0)"/>
<path d="" fill="#000000" transform="translate(0,0)"/>
<path d="" fill="#000000" transform="translate(0,0)"/>
<path d="" fill="#003F3F" transform="translate(0,0)"/>
<path d="" fill="#000000" transform="translate(0,0)"/>
<path d="" fill="#000000" transform="translate(0,0)"/>
<path d="" fill="#000000" transform="translate(0,0)"/>
<path d="" fill="#000000" transform="translate(0,0)"/>
<path d="" fill="#000000" transform="translate(0,0)"/>
<path d="" fill="#000000" transform="translate(0,0)"/>
<path d="" fill="#000000" transform="translate(0,0)"/>
<path d="" fill="#000000" transform="translate(0,0)"/>
<path d="" fill="#000000" transform="translate(0,0)"/>
<path d="" fill="#000000" transform="translate(0,0)"/>
<path d="" fill="#000000" transform="translate(0,0)"/>
<path d="" fill="#000000" transform="translate(0,0)"/>
<path d="" fill="#000000" transform="translate(0,0)"/>
<path d="" fill="#000000" transform="translate(0,0)"/>
<path d="" fill="#000000" transform="translate(0,0)"/>
<path d="" fill="#000000" transform="translate(0,0)"/>
<path d="" fill="#000000" transform="translate(0,0)"/>
<path d="" fill="#000000" transform="translate(0,0)"/>
<path d="" fill="#000000" transform="translate(0,0)"/>
<path d="" fill="#000000" transform="translate(0,0)"/>
<path d="" fill="#000000" transform="translate(0,0)"/>
<path d="" fill="#000000" transform="translate(0,0)"/>
<path d="" fill="#000000" transform="translate(0,0)"/>
<path d="" fill="#000000" transform="translate(0,0)"/>
<path d="" fill="#000000" transform="translate(0,0)"/>
<path d="" fill="#000000" transform="translate(0,0)"/>
<path d="" fill="#000000" transform="translate(0,0)"/>
<path d="" fill="#000000" transform="translate(0,0)"/>
<path d="" fill="#000000" transform="translate(0,0)"/>
<path d="" fill="#000000" transform="translate(0,0)"/>
<path d="" fill="#000000" transform="translate(0,0)"/>
<path d="" fill="#000000" transform="translate(0,0)"/>
<path d="" fill="#000000" transform="translate(0,0)"/>
<path d="" fill="#000000" transform="translate(0,0)"/>
<path d="" fill="#000000" transform="translate(0,0)"/>
<path d="" fill="#000000" transform="translate(0,0)"/>
<path d="" fill="#000000" transform="translate(0,0)"/>
<path d="" fill="#000000" transform="translate(0,0)"/>
<path d="" fill="#000000" transform="translate(0,0)"/>
<path d="" fill="#000000" transform="translate(0,0)"/>
<path d="" fill="#000000" transform="translate(0,0)"/>
<path d="" fill="#000000" transform="translate(0,0)"/>
<path d="" fill="#000000" transform="translate(0,0)"/>
<path d="" fill="#000000" transform="translate(0,0)"/>
<path d="" fill="#000000" transform="translate(0,0)"/>
<path d="" fill="#000000" transform="translate(0,0)"/>
<path d="" fill="#000000" transform="translate(0,0)"/>
<path d="" fill="#000000" transform="translate(0,0)"/>
<path d="" fill="#000000" transform="translate(0,0)"/>
<path d="" fill="#000000" transform="translate(0,0)"/>
<path d="" fill="#000000" transform="translate(0,0)"/>
<path d="" fill="#000000" transform="translate(0,0)"/>
<path d="" fill="#000000" transform="translate(0,0)"/>
<path d="" fill="#000000" transform="translate(0,0)"/>
<path d="" fill="#000000" transform="translate(0,0)"/>
<path d="" fill="#000000" transform="translate(0,0)"/>
<path d="" fill="#000000" transform="translate(0,0)"/>
<path d="" fill="#000000" transform="translate(0,0)"/>
<path d="" fill="#000000" transform="translate(0,0)"/>
<path d="" fill="#000000" transform="translate(0,0)"/>
<path d="" fill="#000000" transform="translate(0,0)"/>
<path d="" fill="#000000" transform="translate(0,0)"/>
<path d="" fill="#000000" transform="translate(0,0)"/>
<path d="" fill="#000000" transform="translate(0,0)"/>
<path d="" fill="#000000" transform="translate(0,0)"/>
<path d="" fill="#000000" transform="translate(0,0)"/>
<path d="" fill="#000000" transform="translate(0,0)"/>
<path d="" fill="#000000" transform="translate(0,0)"/>
<path d="" fill="#000000" transform="translate(0,0)"/>
<path d="" fill="#000000" transform="translate(0,0)"/>
<path d="" fill="#000000" transform="translate(0,0)"/>
<path d="" fill="#000000" transform="translate(0,0)"/>
<path d="" fill="#000000" transform="translate(0,0)"/>
<path d="" fill="#000000" transform="translate(0,0)"/>
<path d="" fill="#000000" transform="translate(0,0)"/>
<path d="" fill="#000000" transform="translate(0,0)"/>
<path d="" fill="#000000" transform="translate(0,0)"/>
<path d="" fill="#000000" transform="translate(0,0)"/>
<path d="" fill="#000000" transform="translate(0,0)"/>
<path d="" fill="#000000" transform="translate(0,0)"/>
<path d="" fill="#000000" transform="translate(0,0)"/>
<path d="" fill="#000000" transform="translate(0,0)"/>
<path d="" fill="#000000" transform="translate(0,0)"/>
<path d="" fill="#000000" transform="translate(0,0)"/>
<path d="" fill="#000000" transform="translate(0,0)"/>
<path d="" fill="#000000" transform="translate(0,0)"/>
<path d="" fill="#000000" transform="translate(0,0)"/>
<path d="" fill="#000000" transform="translate(0,0)"/>
<path d="" fill="#000000" transform="translate(0,0)"/>
<path d="" fill="#000000" transform="translate(0,0)"/>
<path d="" fill="#000000" transform="translate(0,0)"/>
<path d="" fill="#000000" transform="translate(0,0)"/>
<path d="" fill="#000000" transform="translate(0,0)"/>
<path d="" fill="#000000" transform="translate(0,0)"/>
<path d="" fill="#000000" transform="translate(0,0)"/>
<path d="" fill="#000000" transform="translate(0,0)"/>
<path d="" fill="#000000" transform="translate(0,0)"/>
<path d="" fill="#000000" transform="translate(0,0)"/>
<path d="" fill="#000000" transform="translate(0,0)"/>
<path d="" fill="#000000" transform="translate(0,0)"/>
<path d="" fill="#000000" transform="translate(0,0)"/>
<path d="" fill="#000000" transform="translate(0,0)"/>
<path d="" fill="#000000" transform="translate(0,0)"/>
<path d="" fill="#000000" transform="translate(0,0)"/>
<path d="" fill="#000000" transform="translate(0,0)"/>
<path d="" fill="#000000" transform="translate(0,0)"/>
<path d="" fill="#000000" transform="translate(0,0)"/>
<path d="" fill="#000000" transform="translate(0,0)"/>
<path d="" fill="#000000" transform="translate(0,0)"/>
<path d="" fill="#000000" transform="translate(0,0)"/>
<path d="" fill="#000000" transform="translate(0,0)"/>
<path d="" fill="#000000" transform="translate(0,0)"/>
<path d="" fill="#000000" transform="translate(0,0)"/>
<path d="" fill="#000000" transform="translate(0,0)"/>
<path d="" fill="#000000" transform="translate(0,0)"/>
<path d="" fill="#000000" transform="translate(0,0)"/>
<path d="" fill="#000000" transform="translate(0,0)"/>
<path d="" fill="#000000" transform="translate(0,0)"/>
<path d="" fill="#000000" transform="translate(0,0)"/>
<path d="" fill="#000000" transform="translate(0,0)"/>
<path d="" fill="#000000" transform="translate(0,0)"/>
<path d="" fill="#000000" transform="translate(0,0)"/>
<path d="" fill="#000000" transform="translate(0,0)"/>
<path d="" fill="#000000" transform="translate(0,0)"/>
<path d="" fill="#000000" transform="translate(0,0)"/>
<path d="" fill="#000000" transform="translate(0,0)"/>
<path d="" fill="#000000" transform="translate(0,0)"/>
<path d="" fill="#000000" transform="translate(0,0)"/>
<path d="" fill="#000000" transform="translate(0,0)"/>
<path d="" fill="#000000" transform="translate(0,0)"/>
<path d="" fill="#000000" transform="translate(0,0)"/>
<path d="" fill="#000000" transform="translate(0,0)"/>
<path d="" fill="#000000" transform="translate(0,0)"/>
</svg>
